ISO-10303-21;
HEADER;
/* Generated by software containing ST-Developer
 * from STEP Tools, Inc. (www.steptools.com) 
 */

FILE_DESCRIPTION(
/* description */ (''),
/* implementation_level */ '2;1');

FILE_NAME(
/* name */ 'sensorPart.step',
/* time_stamp */ '2026-05-10T18:24:13+10:00',
/* author */ (''),
/* organization */ (''),
/* preprocessor_version */ 'ST-DEVELOPER v20.1',
/* originating_system */ 'Autodesk Translation Framework v15.8.0.0',
/* authorisation */ '');

FILE_SCHEMA (('AUTOMOTIVE_DESIGN { 1 0 10303 214 3 1 1 }'));
ENDSEC;

DATA;
#10=MECHANICAL_DESIGN_GEOMETRIC_PRESENTATION_REPRESENTATION('',(#13),#951);
#11=SHAPE_REPRESENTATION_RELATIONSHIP('SRR','None',#958,#12);
#12=ADVANCED_BREP_SHAPE_REPRESENTATION('',(#14),#950);
#13=STYLED_ITEM('',(#967),#14);
#14=MANIFOLD_SOLID_BREP('Body1',#577);
#15=CYLINDRICAL_SURFACE('',#612,0.0875);
#16=CYLINDRICAL_SURFACE('',#615,0.0875);
#17=CYLINDRICAL_SURFACE('',#618,0.0874999999999999);
#18=CYLINDRICAL_SURFACE('',#621,0.0874999999999999);
#19=CYLINDRICAL_SURFACE('',#632,0.8125);
#20=CYLINDRICAL_SURFACE('',#633,0.8125);
#21=FACE_BOUND('',#85,.T.);
#22=FACE_BOUND('',#86,.T.);
#23=FACE_BOUND('',#87,.T.);
#24=FACE_BOUND('',#88,.T.);
#25=FACE_BOUND('',#89,.T.);
#26=FACE_BOUND('',#90,.T.);
#27=FACE_BOUND('',#106,.T.);
#28=FACE_BOUND('',#107,.T.);
#29=CIRCLE('',#603,0.0874999999999999);
#30=CIRCLE('',#604,0.8125);
#31=CIRCLE('',#605,0.8125);
#32=CIRCLE('',#606,0.0875);
#33=CIRCLE('',#607,0.0875);
#34=CIRCLE('',#608,0.0874999999999999);
#35=CIRCLE('',#613,0.0875);
#36=CIRCLE('',#616,0.0875);
#37=CIRCLE('',#619,0.0874999999999999);
#38=CIRCLE('',#622,0.0874999999999999);
#39=CIRCLE('',#628,0.8125);
#40=CIRCLE('',#629,0.8125);
#41=FACE_OUTER_BOUND('',#73,.T.);
#42=FACE_OUTER_BOUND('',#74,.T.);
#43=FACE_OUTER_BOUND('',#75,.T.);
#44=FACE_OUTER_BOUND('',#76,.T.);
#45=FACE_OUTER_BOUND('',#77,.T.);
#46=FACE_OUTER_BOUND('',#78,.T.);
#47=FACE_OUTER_BOUND('',#79,.T.);
#48=FACE_OUTER_BOUND('',#80,.T.);
#49=FACE_OUTER_BOUND('',#81,.T.);
#50=FACE_OUTER_BOUND('',#82,.T.);
#51=FACE_OUTER_BOUND('',#83,.T.);
#52=FACE_OUTER_BOUND('',#84,.T.);
#53=FACE_OUTER_BOUND('',#91,.T.);
#54=FACE_OUTER_BOUND('',#92,.T.);
#55=FACE_OUTER_BOUND('',#93,.T.);
#56=FACE_OUTER_BOUND('',#94,.T.);
#57=FACE_OUTER_BOUND('',#95,.T.);
#58=FACE_OUTER_BOUND('',#96,.T.);
#59=FACE_OUTER_BOUND('',#97,.T.);
#60=FACE_OUTER_BOUND('',#98,.T.);
#61=FACE_OUTER_BOUND('',#99,.T.);
#62=FACE_OUTER_BOUND('',#100,.T.);
#63=FACE_OUTER_BOUND('',#101,.T.);
#64=FACE_OUTER_BOUND('',#102,.T.);
#65=FACE_OUTER_BOUND('',#103,.T.);
#66=FACE_OUTER_BOUND('',#104,.T.);
#67=FACE_OUTER_BOUND('',#105,.T.);
#68=FACE_OUTER_BOUND('',#108,.T.);
#69=FACE_OUTER_BOUND('',#109,.T.);
#70=FACE_OUTER_BOUND('',#110,.T.);
#71=FACE_OUTER_BOUND('',#111,.T.);
#72=FACE_OUTER_BOUND('',#112,.T.);
#73=EDGE_LOOP('',(#367,#368,#369,#370));
#74=EDGE_LOOP('',(#371,#372,#373,#374));
#75=EDGE_LOOP('',(#375,#376,#377,#378));
#76=EDGE_LOOP('',(#379,#380,#381,#382));
#77=EDGE_LOOP('',(#383,#384,#385,#386));
#78=EDGE_LOOP('',(#387,#388,#389,#390));
#79=EDGE_LOOP('',(#391,#392,#393,#394));
#80=EDGE_LOOP('',(#395,#396,#397,#398,#399,#400));
#81=EDGE_LOOP('',(#401,#402,#403,#404));
#82=EDGE_LOOP('',(#405,#406,#407,#408));
#83=EDGE_LOOP('',(#409,#410,#411,#412));
#84=EDGE_LOOP('',(#413,#414,#415,#416,#417,#418,#419,#420));
#85=EDGE_LOOP('',(#421));
#86=EDGE_LOOP('',(#422));
#87=EDGE_LOOP('',(#423));
#88=EDGE_LOOP('',(#424));
#89=EDGE_LOOP('',(#425));
#90=EDGE_LOOP('',(#426));
#91=EDGE_LOOP('',(#427,#428,#429,#430,#431,#432,#433,#434,#435,#436,#437));
#92=EDGE_LOOP('',(#438,#439,#440,#441));
#93=EDGE_LOOP('',(#442,#443,#444,#445,#446,#447));
#94=EDGE_LOOP('',(#448,#449,#450,#451));
#95=EDGE_LOOP('',(#452));
#96=EDGE_LOOP('',(#453,#454,#455,#456));
#97=EDGE_LOOP('',(#457));
#98=EDGE_LOOP('',(#458,#459,#460,#461));
#99=EDGE_LOOP('',(#462));
#100=EDGE_LOOP('',(#463,#464,#465,#466));
#101=EDGE_LOOP('',(#467));
#102=EDGE_LOOP('',(#468,#469,#470,#471));
#103=EDGE_LOOP('',(#472,#473,#474,#475));
#104=EDGE_LOOP('',(#476,#477,#478,#479));
#105=EDGE_LOOP('',(#480,#481,#482,#483,#484,#485,#486,#487,#488,#489,#490,
#491,#492,#493,#494));
#106=EDGE_LOOP('',(#495));
#107=EDGE_LOOP('',(#496));
#108=EDGE_LOOP('',(#497,#498,#499,#500));
#109=EDGE_LOOP('',(#501,#502,#503,#504,#505,#506));
#110=EDGE_LOOP('',(#507,#508,#509,#510));
#111=EDGE_LOOP('',(#511,#512,#513,#514));
#112=EDGE_LOOP('',(#515,#516,#517,#518));
#113=LINE('',#793,#177);
#114=LINE('',#795,#178);
#115=LINE('',#797,#179);
#116=LINE('',#798,#180);
#117=LINE('',#802,#181);
#118=LINE('',#804,#182);
#119=LINE('',#806,#183);
#120=LINE('',#807,#184);
#121=LINE('',#809,#185);
#122=LINE('',#810,#186);
#123=LINE('',#812,#187);
#124=LINE('',#815,#188);
#125=LINE('',#817,#189);
#126=LINE('',#818,#190);
#127=LINE('',#822,#191);
#128=LINE('',#824,#192);
#129=LINE('',#826,#193);
#130=LINE('',#827,#194);
#131=LINE('',#831,#195);
#132=LINE('',#832,#196);
#133=LINE('',#833,#197);
#134=LINE('',#835,#198);
#135=LINE('',#836,#199);
#136=LINE('',#839,#200);
#137=LINE('',#841,#201);
#138=LINE('',#842,#202);
#139=LINE('',#845,#203);
#140=LINE('',#847,#204);
#141=LINE('',#848,#205);
#142=LINE('',#851,#206);
#143=LINE('',#853,#207);
#144=LINE('',#854,#208);
#145=LINE('',#858,#209);
#146=LINE('',#860,#210);
#147=LINE('',#862,#211);
#148=LINE('',#864,#212);
#149=LINE('',#866,#213);
#150=LINE('',#868,#214);
#151=LINE('',#870,#215);
#152=LINE('',#871,#216);
#153=LINE('',#886,#217);
#154=LINE('',#888,#218);
#155=LINE('',#889,#219);
#156=LINE('',#891,#220);
#157=LINE('',#892,#221);
#158=LINE('',#895,#222);
#159=LINE('',#896,#223);
#160=LINE('',#900,#224);
#161=LINE('',#905,#225);
#162=LINE('',#910,#226);
#163=LINE('',#915,#227);
#164=LINE('',#920,#228);
#165=LINE('',#921,#229);
#166=LINE('',#922,#230);
#167=LINE('',#925,#231);
#168=LINE('',#926,#232);
#169=LINE('',#929,#233);
#170=LINE('',#930,#234);
#171=LINE('',#932,#235);
#172=LINE('',#934,#236);
#173=LINE('',#935,#237);
#174=LINE('',#942,#238);
#175=LINE('',#944,#239);
#176=LINE('',#946,#240);
#177=VECTOR('',#639,1.);
#178=VECTOR('',#640,1.);
#179=VECTOR('',#641,1.);
#180=VECTOR('',#642,1.);
#181=VECTOR('',#645,1.);
#182=VECTOR('',#646,1.);
#183=VECTOR('',#647,1.);
#184=VECTOR('',#648,1.);
#185=VECTOR('',#651,1.);
#186=VECTOR('',#652,1.);
#187=VECTOR('',#655,1.);
#188=VECTOR('',#658,1.);
#189=VECTOR('',#659,1.);
#190=VECTOR('',#660,1.);
#191=VECTOR('',#663,1.);
#192=VECTOR('',#664,1.);
#193=VECTOR('',#665,1.);
#194=VECTOR('',#666,1.);
#195=VECTOR('',#669,1.);
#196=VECTOR('',#670,1.);
#197=VECTOR('',#671,1.);
#198=VECTOR('',#674,1.);
#199=VECTOR('',#675,1.);
#200=VECTOR('',#678,1.);
#201=VECTOR('',#679,1.);
#202=VECTOR('',#680,1.);
#203=VECTOR('',#683,1.);
#204=VECTOR('',#684,1.);
#205=VECTOR('',#685,1.);
#206=VECTOR('',#688,1.);
#207=VECTOR('',#689,1.);
#208=VECTOR('',#690,1.);
#209=VECTOR('',#693,1.);
#210=VECTOR('',#694,1.);
#211=VECTOR('',#695,1.);
#212=VECTOR('',#696,1.);
#213=VECTOR('',#697,1.);
#214=VECTOR('',#698,1.);
#215=VECTOR('',#699,1.);
#216=VECTOR('',#700,1.);
#217=VECTOR('',#715,1.);
#218=VECTOR('',#716,1.);
#219=VECTOR('',#717,1.);
#220=VECTOR('',#720,1.);
#221=VECTOR('',#721,1.);
#222=VECTOR('',#724,1.);
#223=VECTOR('',#725,1.);
#224=VECTOR('',#730,0.0875);
#225=VECTOR('',#737,0.0875);
#226=VECTOR('',#744,0.0874999999999999);
#227=VECTOR('',#751,0.0874999999999999);
#228=VECTOR('',#756,1.);
#229=VECTOR('',#757,1.);
#230=VECTOR('',#758,1.);
#231=VECTOR('',#761,1.);
#232=VECTOR('',#762,1.);
#233=VECTOR('',#765,1.);
#234=VECTOR('',#766,1.);
#235=VECTOR('',#769,1.);
#236=VECTOR('',#770,1.);
#237=VECTOR('',#771,1.);
#238=VECTOR('',#780,1.);
#239=VECTOR('',#783,0.8125);
#240=VECTOR('',#786,0.8125);
#241=VERTEX_POINT('',#791);
#242=VERTEX_POINT('',#792);
#243=VERTEX_POINT('',#794);
#244=VERTEX_POINT('',#796);
#245=VERTEX_POINT('',#800);
#246=VERTEX_POINT('',#801);
#247=VERTEX_POINT('',#803);
#248=VERTEX_POINT('',#805);
#249=VERTEX_POINT('',#814);
#250=VERTEX_POINT('',#816);
#251=VERTEX_POINT('',#820);
#252=VERTEX_POINT('',#821);
#253=VERTEX_POINT('',#823);
#254=VERTEX_POINT('',#825);
#255=VERTEX_POINT('',#829);
#256=VERTEX_POINT('',#830);
#257=VERTEX_POINT('',#838);
#258=VERTEX_POINT('',#840);
#259=VERTEX_POINT('',#844);
#260=VERTEX_POINT('',#846);
#261=VERTEX_POINT('',#850);
#262=VERTEX_POINT('',#852);
#263=VERTEX_POINT('',#856);
#264=VERTEX_POINT('',#857);
#265=VERTEX_POINT('',#859);
#266=VERTEX_POINT('',#861);
#267=VERTEX_POINT('',#863);
#268=VERTEX_POINT('',#865);
#269=VERTEX_POINT('',#867);
#270=VERTEX_POINT('',#869);
#271=VERTEX_POINT('',#872);
#272=VERTEX_POINT('',#874);
#273=VERTEX_POINT('',#876);
#274=VERTEX_POINT('',#878);
#275=VERTEX_POINT('',#880);
#276=VERTEX_POINT('',#882);
#277=VERTEX_POINT('',#885);
#278=VERTEX_POINT('',#887);
#279=VERTEX_POINT('',#894);
#280=VERTEX_POINT('',#898);
#281=VERTEX_POINT('',#903);
#282=VERTEX_POINT('',#908);
#283=VERTEX_POINT('',#913);
#284=VERTEX_POINT('',#918);
#285=VERTEX_POINT('',#919);
#286=VERTEX_POINT('',#924);
#287=VERTEX_POINT('',#928);
#288=VERTEX_POINT('',#933);
#289=VERTEX_POINT('',#936);
#290=VERTEX_POINT('',#938);
#291=EDGE_CURVE('',#241,#242,#113,.T.);
#292=EDGE_CURVE('',#241,#243,#114,.T.);
#293=EDGE_CURVE('',#244,#243,#115,.T.);
#294=EDGE_CURVE('',#242,#244,#116,.T.);
#295=EDGE_CURVE('',#245,#246,#117,.T.);
#296=EDGE_CURVE('',#246,#247,#118,.T.);
#297=EDGE_CURVE('',#248,#247,#119,.T.);
#298=EDGE_CURVE('',#245,#248,#120,.T.);
#299=EDGE_CURVE('',#245,#241,#121,.T.);
#300=EDGE_CURVE('',#243,#248,#122,.T.);
#301=EDGE_CURVE('',#247,#244,#123,.T.);
#302=EDGE_CURVE('',#249,#241,#124,.T.);
#303=EDGE_CURVE('',#250,#249,#125,.T.);
#304=EDGE_CURVE('',#250,#245,#126,.T.);
#305=EDGE_CURVE('',#251,#252,#127,.T.);
#306=EDGE_CURVE('',#251,#253,#128,.T.);
#307=EDGE_CURVE('',#254,#253,#129,.T.);
#308=EDGE_CURVE('',#252,#254,#130,.T.);
#309=EDGE_CURVE('',#255,#256,#131,.T.);
#310=EDGE_CURVE('',#256,#254,#132,.T.);
#311=EDGE_CURVE('',#253,#255,#133,.T.);
#312=EDGE_CURVE('',#242,#255,#134,.T.);
#313=EDGE_CURVE('',#246,#256,#135,.T.);
#314=EDGE_CURVE('',#257,#252,#136,.T.);
#315=EDGE_CURVE('',#258,#257,#137,.T.);
#316=EDGE_CURVE('',#258,#251,#138,.T.);
#317=EDGE_CURVE('',#257,#259,#139,.T.);
#318=EDGE_CURVE('',#260,#259,#140,.T.);
#319=EDGE_CURVE('',#258,#260,#141,.T.);
#320=EDGE_CURVE('',#261,#249,#142,.T.);
#321=EDGE_CURVE('',#262,#261,#143,.T.);
#322=EDGE_CURVE('',#262,#250,#144,.T.);
#323=EDGE_CURVE('',#263,#264,#145,.T.);
#324=EDGE_CURVE('',#265,#264,#146,.T.);
#325=EDGE_CURVE('',#265,#266,#147,.T.);
#326=EDGE_CURVE('',#266,#267,#148,.T.);
#327=EDGE_CURVE('',#267,#268,#149,.T.);
#328=EDGE_CURVE('',#268,#269,#150,.T.);
#329=EDGE_CURVE('',#269,#270,#151,.T.);
#330=EDGE_CURVE('',#270,#263,#152,.T.);
#331=EDGE_CURVE('',#271,#271,#29,.T.);
#332=EDGE_CURVE('',#272,#272,#30,.T.);
#333=EDGE_CURVE('',#273,#273,#31,.T.);
#334=EDGE_CURVE('',#274,#274,#32,.T.);
#335=EDGE_CURVE('',#275,#275,#33,.T.);
#336=EDGE_CURVE('',#276,#276,#34,.T.);
#337=EDGE_CURVE('',#277,#260,#153,.T.);
#338=EDGE_CURVE('',#278,#277,#154,.T.);
#339=EDGE_CURVE('',#261,#278,#155,.T.);
#340=EDGE_CURVE('',#264,#277,#156,.T.);
#341=EDGE_CURVE('',#278,#263,#157,.T.);
#342=EDGE_CURVE('',#279,#259,#158,.T.);
#343=EDGE_CURVE('',#279,#265,#159,.T.);
#344=EDGE_CURVE('',#280,#280,#35,.T.);
#345=EDGE_CURVE('',#280,#274,#160,.T.);
#346=EDGE_CURVE('',#281,#281,#36,.T.);
#347=EDGE_CURVE('',#281,#275,#161,.T.);
#348=EDGE_CURVE('',#282,#282,#37,.T.);
#349=EDGE_CURVE('',#282,#271,#162,.T.);
#350=EDGE_CURVE('',#283,#283,#38,.T.);
#351=EDGE_CURVE('',#283,#276,#163,.T.);
#352=EDGE_CURVE('',#284,#285,#164,.T.);
#353=EDGE_CURVE('',#268,#284,#165,.T.);
#354=EDGE_CURVE('',#267,#285,#166,.T.);
#355=EDGE_CURVE('',#285,#286,#167,.T.);
#356=EDGE_CURVE('',#286,#266,#168,.T.);
#357=EDGE_CURVE('',#287,#284,#169,.T.);
#358=EDGE_CURVE('',#269,#287,#170,.T.);
#359=EDGE_CURVE('',#279,#286,#171,.T.);
#360=EDGE_CURVE('',#288,#262,#172,.T.);
#361=EDGE_CURVE('',#287,#288,#173,.T.);
#362=EDGE_CURVE('',#289,#289,#39,.T.);
#363=EDGE_CURVE('',#290,#290,#40,.T.);
#364=EDGE_CURVE('',#288,#270,#174,.T.);
#365=EDGE_CURVE('',#273,#289,#175,.T.);
#366=EDGE_CURVE('',#272,#290,#176,.T.);
#367=ORIENTED_EDGE('',*,*,#291,.F.);
#368=ORIENTED_EDGE('',*,*,#292,.T.);
#369=ORIENTED_EDGE('',*,*,#293,.F.);
#370=ORIENTED_EDGE('',*,*,#294,.F.);
#371=ORIENTED_EDGE('',*,*,#295,.T.);
#372=ORIENTED_EDGE('',*,*,#296,.T.);
#373=ORIENTED_EDGE('',*,*,#297,.F.);
#374=ORIENTED_EDGE('',*,*,#298,.F.);
#375=ORIENTED_EDGE('',*,*,#299,.F.);
#376=ORIENTED_EDGE('',*,*,#298,.T.);
#377=ORIENTED_EDGE('',*,*,#300,.F.);
#378=ORIENTED_EDGE('',*,*,#292,.F.);
#379=ORIENTED_EDGE('',*,*,#300,.T.);
#380=ORIENTED_EDGE('',*,*,#297,.T.);
#381=ORIENTED_EDGE('',*,*,#301,.T.);
#382=ORIENTED_EDGE('',*,*,#293,.T.);
#383=ORIENTED_EDGE('',*,*,#299,.T.);
#384=ORIENTED_EDGE('',*,*,#302,.F.);
#385=ORIENTED_EDGE('',*,*,#303,.F.);
#386=ORIENTED_EDGE('',*,*,#304,.T.);
#387=ORIENTED_EDGE('',*,*,#305,.F.);
#388=ORIENTED_EDGE('',*,*,#306,.T.);
#389=ORIENTED_EDGE('',*,*,#307,.F.);
#390=ORIENTED_EDGE('',*,*,#308,.F.);
#391=ORIENTED_EDGE('',*,*,#309,.T.);
#392=ORIENTED_EDGE('',*,*,#310,.T.);
#393=ORIENTED_EDGE('',*,*,#307,.T.);
#394=ORIENTED_EDGE('',*,*,#311,.T.);
#395=ORIENTED_EDGE('',*,*,#312,.F.);
#396=ORIENTED_EDGE('',*,*,#294,.T.);
#397=ORIENTED_EDGE('',*,*,#301,.F.);
#398=ORIENTED_EDGE('',*,*,#296,.F.);
#399=ORIENTED_EDGE('',*,*,#313,.T.);
#400=ORIENTED_EDGE('',*,*,#309,.F.);
#401=ORIENTED_EDGE('',*,*,#305,.T.);
#402=ORIENTED_EDGE('',*,*,#314,.F.);
#403=ORIENTED_EDGE('',*,*,#315,.F.);
#404=ORIENTED_EDGE('',*,*,#316,.T.);
#405=ORIENTED_EDGE('',*,*,#315,.T.);
#406=ORIENTED_EDGE('',*,*,#317,.T.);
#407=ORIENTED_EDGE('',*,*,#318,.F.);
#408=ORIENTED_EDGE('',*,*,#319,.F.);
#409=ORIENTED_EDGE('',*,*,#303,.T.);
#410=ORIENTED_EDGE('',*,*,#320,.F.);
#411=ORIENTED_EDGE('',*,*,#321,.F.);
#412=ORIENTED_EDGE('',*,*,#322,.T.);
#413=ORIENTED_EDGE('',*,*,#323,.T.);
#414=ORIENTED_EDGE('',*,*,#324,.F.);
#415=ORIENTED_EDGE('',*,*,#325,.T.);
#416=ORIENTED_EDGE('',*,*,#326,.T.);
#417=ORIENTED_EDGE('',*,*,#327,.T.);
#418=ORIENTED_EDGE('',*,*,#328,.T.);
#419=ORIENTED_EDGE('',*,*,#329,.T.);
#420=ORIENTED_EDGE('',*,*,#330,.T.);
#421=ORIENTED_EDGE('',*,*,#331,.T.);
#422=ORIENTED_EDGE('',*,*,#332,.T.);
#423=ORIENTED_EDGE('',*,*,#333,.T.);
#424=ORIENTED_EDGE('',*,*,#334,.T.);
#425=ORIENTED_EDGE('',*,*,#335,.T.);
#426=ORIENTED_EDGE('',*,*,#336,.T.);
#427=ORIENTED_EDGE('',*,*,#320,.T.);
#428=ORIENTED_EDGE('',*,*,#302,.T.);
#429=ORIENTED_EDGE('',*,*,#291,.T.);
#430=ORIENTED_EDGE('',*,*,#312,.T.);
#431=ORIENTED_EDGE('',*,*,#311,.F.);
#432=ORIENTED_EDGE('',*,*,#306,.F.);
#433=ORIENTED_EDGE('',*,*,#316,.F.);
#434=ORIENTED_EDGE('',*,*,#319,.T.);
#435=ORIENTED_EDGE('',*,*,#337,.F.);
#436=ORIENTED_EDGE('',*,*,#338,.F.);
#437=ORIENTED_EDGE('',*,*,#339,.F.);
#438=ORIENTED_EDGE('',*,*,#338,.T.);
#439=ORIENTED_EDGE('',*,*,#340,.F.);
#440=ORIENTED_EDGE('',*,*,#323,.F.);
#441=ORIENTED_EDGE('',*,*,#341,.F.);
#442=ORIENTED_EDGE('',*,*,#324,.T.);
#443=ORIENTED_EDGE('',*,*,#340,.T.);
#444=ORIENTED_EDGE('',*,*,#337,.T.);
#445=ORIENTED_EDGE('',*,*,#318,.T.);
#446=ORIENTED_EDGE('',*,*,#342,.F.);
#447=ORIENTED_EDGE('',*,*,#343,.T.);
#448=ORIENTED_EDGE('',*,*,#344,.F.);
#449=ORIENTED_EDGE('',*,*,#345,.T.);
#450=ORIENTED_EDGE('',*,*,#334,.F.);
#451=ORIENTED_EDGE('',*,*,#345,.F.);
#452=ORIENTED_EDGE('',*,*,#344,.T.);
#453=ORIENTED_EDGE('',*,*,#346,.F.);
#454=ORIENTED_EDGE('',*,*,#347,.T.);
#455=ORIENTED_EDGE('',*,*,#335,.F.);
#456=ORIENTED_EDGE('',*,*,#347,.F.);
#457=ORIENTED_EDGE('',*,*,#346,.T.);
#458=ORIENTED_EDGE('',*,*,#348,.F.);
#459=ORIENTED_EDGE('',*,*,#349,.T.);
#460=ORIENTED_EDGE('',*,*,#331,.F.);
#461=ORIENTED_EDGE('',*,*,#349,.F.);
#462=ORIENTED_EDGE('',*,*,#348,.T.);
#463=ORIENTED_EDGE('',*,*,#350,.F.);
#464=ORIENTED_EDGE('',*,*,#351,.T.);
#465=ORIENTED_EDGE('',*,*,#336,.F.);
#466=ORIENTED_EDGE('',*,*,#351,.F.);
#467=ORIENTED_EDGE('',*,*,#350,.T.);
#468=ORIENTED_EDGE('',*,*,#352,.F.);
#469=ORIENTED_EDGE('',*,*,#353,.F.);
#470=ORIENTED_EDGE('',*,*,#327,.F.);
#471=ORIENTED_EDGE('',*,*,#354,.T.);
#472=ORIENTED_EDGE('',*,*,#355,.F.);
#473=ORIENTED_EDGE('',*,*,#354,.F.);
#474=ORIENTED_EDGE('',*,*,#326,.F.);
#475=ORIENTED_EDGE('',*,*,#356,.F.);
#476=ORIENTED_EDGE('',*,*,#357,.F.);
#477=ORIENTED_EDGE('',*,*,#358,.F.);
#478=ORIENTED_EDGE('',*,*,#328,.F.);
#479=ORIENTED_EDGE('',*,*,#353,.T.);
#480=ORIENTED_EDGE('',*,*,#357,.T.);
#481=ORIENTED_EDGE('',*,*,#352,.T.);
#482=ORIENTED_EDGE('',*,*,#355,.T.);
#483=ORIENTED_EDGE('',*,*,#359,.F.);
#484=ORIENTED_EDGE('',*,*,#342,.T.);
#485=ORIENTED_EDGE('',*,*,#317,.F.);
#486=ORIENTED_EDGE('',*,*,#314,.T.);
#487=ORIENTED_EDGE('',*,*,#308,.T.);
#488=ORIENTED_EDGE('',*,*,#310,.F.);
#489=ORIENTED_EDGE('',*,*,#313,.F.);
#490=ORIENTED_EDGE('',*,*,#295,.F.);
#491=ORIENTED_EDGE('',*,*,#304,.F.);
#492=ORIENTED_EDGE('',*,*,#322,.F.);
#493=ORIENTED_EDGE('',*,*,#360,.F.);
#494=ORIENTED_EDGE('',*,*,#361,.F.);
#495=ORIENTED_EDGE('',*,*,#362,.F.);
#496=ORIENTED_EDGE('',*,*,#363,.F.);
#497=ORIENTED_EDGE('',*,*,#356,.T.);
#498=ORIENTED_EDGE('',*,*,#325,.F.);
#499=ORIENTED_EDGE('',*,*,#343,.F.);
#500=ORIENTED_EDGE('',*,*,#359,.T.);
#501=ORIENTED_EDGE('',*,*,#330,.F.);
#502=ORIENTED_EDGE('',*,*,#364,.F.);
#503=ORIENTED_EDGE('',*,*,#360,.T.);
#504=ORIENTED_EDGE('',*,*,#321,.T.);
#505=ORIENTED_EDGE('',*,*,#339,.T.);
#506=ORIENTED_EDGE('',*,*,#341,.T.);
#507=ORIENTED_EDGE('',*,*,#333,.F.);
#508=ORIENTED_EDGE('',*,*,#365,.T.);
#509=ORIENTED_EDGE('',*,*,#362,.T.);
#510=ORIENTED_EDGE('',*,*,#365,.F.);
#511=ORIENTED_EDGE('',*,*,#332,.F.);
#512=ORIENTED_EDGE('',*,*,#366,.T.);
#513=ORIENTED_EDGE('',*,*,#363,.T.);
#514=ORIENTED_EDGE('',*,*,#366,.F.);
#515=ORIENTED_EDGE('',*,*,#358,.T.);
#516=ORIENTED_EDGE('',*,*,#361,.T.);
#517=ORIENTED_EDGE('',*,*,#364,.T.);
#518=ORIENTED_EDGE('',*,*,#329,.F.);
#519=PLANE('',#591);
#520=PLANE('',#592);
#521=PLANE('',#593);
#522=PLANE('',#594);
#523=PLANE('',#595);
#524=PLANE('',#596);
#525=PLANE('',#597);
#526=PLANE('',#598);
#527=PLANE('',#599);
#528=PLANE('',#600);
#529=PLANE('',#601);
#530=PLANE('',#602);
#531=PLANE('',#609);
#532=PLANE('',#610);
#533=PLANE('',#611);
#534=PLANE('',#614);
#535=PLANE('',#617);
#536=PLANE('',#620);
#537=PLANE('',#623);
#538=PLANE('',#624);
#539=PLANE('',#625);
#540=PLANE('',#626);
#541=PLANE('',#627);
#542=PLANE('',#630);
#543=PLANE('',#631);
#544=PLANE('',#634);
#545=ADVANCED_FACE('',(#41),#519,.T.);
#546=ADVANCED_FACE('',(#42),#520,.T.);
#547=ADVANCED_FACE('',(#43),#521,.T.);
#548=ADVANCED_FACE('',(#44),#522,.T.);
#549=ADVANCED_FACE('',(#45),#523,.T.);
#550=ADVANCED_FACE('',(#46),#524,.T.);
#551=ADVANCED_FACE('',(#47),#525,.T.);
#552=ADVANCED_FACE('',(#48),#526,.T.);
#553=ADVANCED_FACE('',(#49),#527,.T.);
#554=ADVANCED_FACE('',(#50),#528,.T.);
#555=ADVANCED_FACE('',(#51),#529,.T.);
#556=ADVANCED_FACE('',(#52,#21,#22,#23,#24,#25,#26),#530,.T.);
#557=ADVANCED_FACE('',(#53),#531,.F.);
#558=ADVANCED_FACE('',(#54),#532,.T.);
#559=ADVANCED_FACE('',(#55),#533,.T.);
#560=ADVANCED_FACE('',(#56),#15,.T.);
#561=ADVANCED_FACE('',(#57),#534,.T.);
#562=ADVANCED_FACE('',(#58),#16,.T.);
#563=ADVANCED_FACE('',(#59),#535,.T.);
#564=ADVANCED_FACE('',(#60),#17,.T.);
#565=ADVANCED_FACE('',(#61),#536,.T.);
#566=ADVANCED_FACE('',(#62),#18,.T.);
#567=ADVANCED_FACE('',(#63),#537,.T.);
#568=ADVANCED_FACE('',(#64),#538,.F.);
#569=ADVANCED_FACE('',(#65),#539,.F.);
#570=ADVANCED_FACE('',(#66),#540,.F.);
#571=ADVANCED_FACE('',(#67,#27,#28),#541,.F.);
#572=ADVANCED_FACE('',(#68),#542,.T.);
#573=ADVANCED_FACE('',(#69),#543,.T.);
#574=ADVANCED_FACE('',(#70),#19,.F.);
#575=ADVANCED_FACE('',(#71),#20,.F.);
#576=ADVANCED_FACE('',(#72),#544,.T.);
#577=CLOSED_SHELL('',(#545,#546,#547,#548,#549,#550,#551,#552,#553,#554,
#555,#556,#557,#558,#559,#560,#561,#562,#563,#564,#565,#566,#567,#568,#569,
#570,#571,#572,#573,#574,#575,#576));
#578=DERIVED_UNIT_ELEMENT(#580,1.);
#579=DERIVED_UNIT_ELEMENT(#953,-3.);
#580=(
MASS_UNIT()
NAMED_UNIT(*)
SI_UNIT(.KILO.,.GRAM.)
);
#581=DERIVED_UNIT((#578,#579));
#582=MEASURE_REPRESENTATION_ITEM('density measure',
POSITIVE_RATIO_MEASURE(7850.),#581);
#583=PROPERTY_DEFINITION_REPRESENTATION(#588,#585);
#584=PROPERTY_DEFINITION_REPRESENTATION(#589,#586);
#585=REPRESENTATION('material name',(#587),#950);
#586=REPRESENTATION('density',(#582),#950);
#587=DESCRIPTIVE_REPRESENTATION_ITEM('Steel','Steel');
#588=PROPERTY_DEFINITION('material property','material name',#960);
#589=PROPERTY_DEFINITION('material property','density of part',#960);
#590=AXIS2_PLACEMENT_3D('',#789,#635,#636);
#591=AXIS2_PLACEMENT_3D('',#790,#637,#638);
#592=AXIS2_PLACEMENT_3D('',#799,#643,#644);
#593=AXIS2_PLACEMENT_3D('',#808,#649,#650);
#594=AXIS2_PLACEMENT_3D('',#811,#653,#654);
#595=AXIS2_PLACEMENT_3D('',#813,#656,#657);
#596=AXIS2_PLACEMENT_3D('',#819,#661,#662);
#597=AXIS2_PLACEMENT_3D('',#828,#667,#668);
#598=AXIS2_PLACEMENT_3D('',#834,#672,#673);
#599=AXIS2_PLACEMENT_3D('',#837,#676,#677);
#600=AXIS2_PLACEMENT_3D('',#843,#681,#682);
#601=AXIS2_PLACEMENT_3D('',#849,#686,#687);
#602=AXIS2_PLACEMENT_3D('',#855,#691,#692);
#603=AXIS2_PLACEMENT_3D('',#873,#701,#702);
#604=AXIS2_PLACEMENT_3D('',#875,#703,#704);
#605=AXIS2_PLACEMENT_3D('',#877,#705,#706);
#606=AXIS2_PLACEMENT_3D('',#879,#707,#708);
#607=AXIS2_PLACEMENT_3D('',#881,#709,#710);
#608=AXIS2_PLACEMENT_3D('',#883,#711,#712);
#609=AXIS2_PLACEMENT_3D('',#884,#713,#714);
#610=AXIS2_PLACEMENT_3D('',#890,#718,#719);
#611=AXIS2_PLACEMENT_3D('',#893,#722,#723);
#612=AXIS2_PLACEMENT_3D('',#897,#726,#727);
#613=AXIS2_PLACEMENT_3D('',#899,#728,#729);
#614=AXIS2_PLACEMENT_3D('',#901,#731,#732);
#615=AXIS2_PLACEMENT_3D('',#902,#733,#734);
#616=AXIS2_PLACEMENT_3D('',#904,#735,#736);
#617=AXIS2_PLACEMENT_3D('',#906,#738,#739);
#618=AXIS2_PLACEMENT_3D('',#907,#740,#741);
#619=AXIS2_PLACEMENT_3D('',#909,#742,#743);
#620=AXIS2_PLACEMENT_3D('',#911,#745,#746);
#621=AXIS2_PLACEMENT_3D('',#912,#747,#748);
#622=AXIS2_PLACEMENT_3D('',#914,#749,#750);
#623=AXIS2_PLACEMENT_3D('',#916,#752,#753);
#624=AXIS2_PLACEMENT_3D('',#917,#754,#755);
#625=AXIS2_PLACEMENT_3D('',#923,#759,#760);
#626=AXIS2_PLACEMENT_3D('',#927,#763,#764);
#627=AXIS2_PLACEMENT_3D('',#931,#767,#768);
#628=AXIS2_PLACEMENT_3D('',#937,#772,#773);
#629=AXIS2_PLACEMENT_3D('',#939,#774,#775);
#630=AXIS2_PLACEMENT_3D('',#940,#776,#777);
#631=AXIS2_PLACEMENT_3D('',#941,#778,#779);
#632=AXIS2_PLACEMENT_3D('',#943,#781,#782);
#633=AXIS2_PLACEMENT_3D('',#945,#784,#785);
#634=AXIS2_PLACEMENT_3D('',#947,#787,#788);
#635=DIRECTION('axis',(0.,0.,1.));
#636=DIRECTION('refdir',(1.,0.,0.));
#637=DIRECTION('center_axis',(0.00389290953617542,0.999992422598963,0.));
#638=DIRECTION('ref_axis',(0.,0.,1.));
#639=DIRECTION('',(0.,0.,-1.));
#640=DIRECTION('',(0.999992422598963,-0.00389290953617542,0.));
#641=DIRECTION('',(0.,0.,1.));
#642=DIRECTION('',(0.999992422598963,-0.00389290953617542,0.));
#643=DIRECTION('center_axis',(-0.00389290953617542,-0.999992422598963,-1.31276371155002E-17));
#644=DIRECTION('ref_axis',(5.11047037143811E-20,1.31275376421291E-17,-1.));
#645=DIRECTION('',(0.,0.,-1.));
#646=DIRECTION('',(0.999992422598963,-0.00389290953617542,0.));
#647=DIRECTION('',(5.11047037143811E-20,1.31275376421291E-17,-1.));
#648=DIRECTION('',(0.999992422598963,-0.00389290953617542,0.));
#649=DIRECTION('center_axis',(0.,0.,1.));
#650=DIRECTION('ref_axis',(-0.00389290953617543,-0.999992422598963,0.));
#651=DIRECTION('',(0.00389290953617543,0.999992422598963,0.));
#652=DIRECTION('',(-0.00389290953617543,-0.999992422598963,0.));
#653=DIRECTION('center_axis',(0.999992422598963,-0.00389290953617542,0.));
#654=DIRECTION('ref_axis',(0.,0.,-1.));
#655=DIRECTION('',(0.00389290953617543,0.999992422598963,0.));
#656=DIRECTION('center_axis',(0.999992422598963,-0.00389290953617543,0.));
#657=DIRECTION('ref_axis',(-0.00389290953617543,-0.999992422598963,0.));
#658=DIRECTION('',(0.,0.,-1.));
#659=DIRECTION('',(0.00389290953617543,0.999992422598963,0.));
#660=DIRECTION('',(0.,0.,-1.));
#661=DIRECTION('center_axis',(0.,0.,1.));
#662=DIRECTION('ref_axis',(0.,1.,0.));
#663=DIRECTION('',(0.,-1.,0.));
#664=DIRECTION('',(-1.,0.,0.));
#665=DIRECTION('',(0.,1.,0.));
#666=DIRECTION('',(-1.,0.,0.));
#667=DIRECTION('center_axis',(-1.,0.,0.));
#668=DIRECTION('ref_axis',(0.,0.,1.));
#669=DIRECTION('',(0.,-1.,0.));
#670=DIRECTION('',(0.,0.,1.));
#671=DIRECTION('',(0.,0.,-1.));
#672=DIRECTION('center_axis',(0.,0.,-1.));
#673=DIRECTION('ref_axis',(-1.,0.,0.));
#674=DIRECTION('',(-1.,0.,0.));
#675=DIRECTION('',(-1.,0.,0.));
#676=DIRECTION('center_axis',(-1.,0.,0.));
#677=DIRECTION('ref_axis',(0.,1.,0.));
#678=DIRECTION('',(0.,0.,-1.));
#679=DIRECTION('',(0.,-1.,0.));
#680=DIRECTION('',(0.,0.,-1.));
#681=DIRECTION('center_axis',(0.,0.,-1.));
#682=DIRECTION('ref_axis',(-1.,0.,0.));
#683=DIRECTION('',(-1.,0.,0.));
#684=DIRECTION('',(0.,-1.,0.));
#685=DIRECTION('',(-1.,0.,0.));
#686=DIRECTION('center_axis',(0.,0.,-1.));
#687=DIRECTION('ref_axis',(-1.,0.,0.));
#688=DIRECTION('',(-1.,0.,0.));
#689=DIRECTION('',(0.,1.,0.));
#690=DIRECTION('',(-1.,0.,0.));
#691=DIRECTION('center_axis',(0.,1.,0.));
#692=DIRECTION('ref_axis',(1.,0.,0.));
#693=DIRECTION('',(-1.,0.,0.));
#694=DIRECTION('',(0.,0.,-1.));
#695=DIRECTION('',(1.,0.,0.));
#696=DIRECTION('',(0.,0.,-1.));
#697=DIRECTION('',(1.,0.,0.));
#698=DIRECTION('',(0.,0.,1.));
#699=DIRECTION('',(1.,0.,0.));
#700=DIRECTION('',(0.,0.,-1.));
#701=DIRECTION('center_axis',(0.,-1.,0.));
#702=DIRECTION('ref_axis',(1.,0.,0.));
#703=DIRECTION('center_axis',(0.,-1.,0.));
#704=DIRECTION('ref_axis',(1.,0.,0.));
#705=DIRECTION('center_axis',(0.,-1.,0.));
#706=DIRECTION('ref_axis',(1.,0.,0.));
#707=DIRECTION('center_axis',(0.,-1.,0.));
#708=DIRECTION('ref_axis',(1.,0.,0.));
#709=DIRECTION('center_axis',(0.,-1.,0.));
#710=DIRECTION('ref_axis',(1.,0.,0.));
#711=DIRECTION('center_axis',(0.,-1.,0.));
#712=DIRECTION('ref_axis',(1.,0.,0.));
#713=DIRECTION('center_axis',(0.,-1.,0.));
#714=DIRECTION('ref_axis',(0.,0.,-1.));
#715=DIRECTION('',(0.,0.,-1.));
#716=DIRECTION('',(-1.,0.,0.));
#717=DIRECTION('',(0.,0.,1.));
#718=DIRECTION('center_axis',(0.,0.,1.));
#719=DIRECTION('ref_axis',(1.,0.,0.));
#720=DIRECTION('',(0.,1.,0.));
#721=DIRECTION('',(0.,-1.,0.));
#722=DIRECTION('center_axis',(-1.,0.,0.));
#723=DIRECTION('ref_axis',(0.,0.,1.));
#724=DIRECTION('',(0.,0.,-1.));
#725=DIRECTION('',(0.,1.,0.));
#726=DIRECTION('center_axis',(0.,1.,0.));
#727=DIRECTION('ref_axis',(1.,0.,0.));
#728=DIRECTION('center_axis',(0.,1.,0.));
#729=DIRECTION('ref_axis',(1.,0.,0.));
#730=DIRECTION('',(0.,-1.,0.));
#731=DIRECTION('center_axis',(0.,1.,0.));
#732=DIRECTION('ref_axis',(1.,0.,0.));
#733=DIRECTION('center_axis',(0.,1.,0.));
#734=DIRECTION('ref_axis',(1.,0.,0.));
#735=DIRECTION('center_axis',(0.,1.,0.));
#736=DIRECTION('ref_axis',(1.,0.,0.));
#737=DIRECTION('',(0.,-1.,0.));
#738=DIRECTION('center_axis',(0.,1.,0.));
#739=DIRECTION('ref_axis',(1.,0.,0.));
#740=DIRECTION('center_axis',(0.,1.,0.));
#741=DIRECTION('ref_axis',(1.,0.,0.));
#742=DIRECTION('center_axis',(0.,1.,0.));
#743=DIRECTION('ref_axis',(1.,0.,0.));
#744=DIRECTION('',(0.,-1.,0.));
#745=DIRECTION('center_axis',(0.,1.,0.));
#746=DIRECTION('ref_axis',(1.,0.,0.));
#747=DIRECTION('center_axis',(0.,1.,0.));
#748=DIRECTION('ref_axis',(1.,0.,0.));
#749=DIRECTION('center_axis',(0.,1.,0.));
#750=DIRECTION('ref_axis',(1.,0.,0.));
#751=DIRECTION('',(0.,-1.,0.));
#752=DIRECTION('center_axis',(0.,1.,0.));
#753=DIRECTION('ref_axis',(1.,0.,0.));
#754=DIRECTION('center_axis',(0.,0.,-1.));
#755=DIRECTION('ref_axis',(1.,0.,0.));
#756=DIRECTION('',(-1.,0.,0.));
#757=DIRECTION('',(0.,-1.,0.));
#758=DIRECTION('',(0.,-1.,0.));
#759=DIRECTION('center_axis',(-1.,0.,0.));
#760=DIRECTION('ref_axis',(0.,0.,-1.));
#761=DIRECTION('',(0.,0.,1.));
#762=DIRECTION('',(0.,1.,0.));
#763=DIRECTION('center_axis',(1.,0.,0.));
#764=DIRECTION('ref_axis',(0.,0.,1.));
#765=DIRECTION('',(0.,0.,-1.));
#766=DIRECTION('',(0.,-1.,0.));
#767=DIRECTION('center_axis',(0.,1.,0.));
#768=DIRECTION('ref_axis',(1.,0.,0.));
#769=DIRECTION('',(1.,0.,0.));
#770=DIRECTION('',(0.,0.,-1.));
#771=DIRECTION('',(1.,0.,0.));
#772=DIRECTION('center_axis',(0.,-1.,0.));
#773=DIRECTION('ref_axis',(1.,0.,0.));
#774=DIRECTION('center_axis',(0.,-1.,0.));
#775=DIRECTION('ref_axis',(1.,0.,0.));
#776=DIRECTION('center_axis',(0.,0.,1.));
#777=DIRECTION('ref_axis',(1.,0.,0.));
#778=DIRECTION('center_axis',(1.,0.,0.));
#779=DIRECTION('ref_axis',(0.,0.,-1.));
#780=DIRECTION('',(0.,1.,0.));
#781=DIRECTION('center_axis',(0.,1.,0.));
#782=DIRECTION('ref_axis',(1.,0.,0.));
#783=DIRECTION('',(0.,-1.,0.));
#784=DIRECTION('center_axis',(0.,1.,0.));
#785=DIRECTION('ref_axis',(1.,0.,0.));
#786=DIRECTION('',(0.,-1.,0.));
#787=DIRECTION('center_axis',(0.,0.,1.));
#788=DIRECTION('ref_axis',(1.,0.,0.));
#789=CARTESIAN_POINT('',(0.,0.,0.));
#790=CARTESIAN_POINT('Origin',(2.14999995194376,0.399999991059303,-2.13750149227549));
#791=CARTESIAN_POINT('',(2.14999995194376,0.399999991059303,-1.98750149227549));
#792=CARTESIAN_POINT('',(2.14999995194376,0.399999991059303,-2.13750149227549));
#793=CARTESIAN_POINT('',(2.14999995194376,0.399999991059303,-0.287501492275493));
#794=CARTESIAN_POINT('',(3.04999313228282,0.396496372476745,-1.98750149227549));
#795=CARTESIAN_POINT('',(2.14999995194376,0.399999991059303,-1.98750149227549));
#796=CARTESIAN_POINT('',(3.04999313228282,0.396496372476745,-2.13750149227549));
#797=CARTESIAN_POINT('',(3.04999313228282,0.396496372476745,-2.13750149227549));
#798=CARTESIAN_POINT('',(2.14999995194376,0.399999991059303,-2.13750149227549));
#799=CARTESIAN_POINT('Origin',(2.14844277636475,-3.70403814803268E-18,-1.98750149227549));
#800=CARTESIAN_POINT('',(2.14844277636475,-2.60208521396521E-17,-1.98750149227549));
#801=CARTESIAN_POINT('',(2.14844277636475,0.,-2.13750149227549));
#802=CARTESIAN_POINT('',(2.14844277636475,0.,-0.287501492275493));
#803=CARTESIAN_POINT('',(3.04843595670381,-0.00350361858255799,-2.13750149227549));
#804=CARTESIAN_POINT('',(2.14844277636475,-1.73472347597681E-18,-2.13750149227549));
#805=CARTESIAN_POINT('',(3.04843595670381,-0.00350361858255799,-1.98750149227549));
#806=CARTESIAN_POINT('',(3.04843595670381,-0.00350361858255796,-0.287501492275493));
#807=CARTESIAN_POINT('',(2.14844277636475,-2.60208521396521E-17,-1.98750149227549));
#808=CARTESIAN_POINT('Origin',(2.14999995194376,0.399999991059303,-1.98750149227549));
#809=CARTESIAN_POINT('',(2.14999995194376,0.399999991059303,-1.98750149227549));
#810=CARTESIAN_POINT('',(3.04999313228282,0.396496372476745,-1.98750149227549));
#811=CARTESIAN_POINT('Origin',(3.04921454449332,0.196496376947094,-2.06250149227549));
#812=CARTESIAN_POINT('',(3.04843595670381,-0.00350361858255793,-2.13750149227549));
#813=CARTESIAN_POINT('Origin',(2.14999995194376,0.399999991059303,-0.287501492275493));
#814=CARTESIAN_POINT('',(2.14999995194376,0.399999991059303,-0.287501492275493));
#815=CARTESIAN_POINT('',(2.14999995194376,0.399999991059303,-0.287501492275493));
#816=CARTESIAN_POINT('',(2.14844277636475,0.,-0.287501492275493));
#817=CARTESIAN_POINT('',(2.14923197247551,0.202725011556279,-0.287501492275493));
#818=CARTESIAN_POINT('',(2.14844277636475,0.,-0.287501492275493));
#819=CARTESIAN_POINT('Origin',(0.448442776364746,0.,-1.98750149227549));
#820=CARTESIAN_POINT('',(0.448442776364746,0.400000013411045,-1.98750149227549));
#821=CARTESIAN_POINT('',(0.448442776364746,0.,-1.98750149227549));
#822=CARTESIAN_POINT('',(0.448442776364746,0.,-1.98750149227549));
#823=CARTESIAN_POINT('',(-0.451557223635254,0.400000013411045,-1.98750149227549));
#824=CARTESIAN_POINT('',(0.448442776364746,0.400000013411045,-1.98750149227549));
#825=CARTESIAN_POINT('',(-0.451557223635254,0.,-1.98750149227549));
#826=CARTESIAN_POINT('',(-0.451557223635254,0.400000013411045,-1.98750149227549));
#827=CARTESIAN_POINT('',(0.448442776364746,0.,-1.98750149227549));
#828=CARTESIAN_POINT('Origin',(-0.451557223635254,0.200000006705523,-2.06250149227549));
#829=CARTESIAN_POINT('',(-0.451557223635254,0.400000013411045,-2.13750149227549));
#830=CARTESIAN_POINT('',(-0.451557223635254,0.,-2.13750149227549));
#831=CARTESIAN_POINT('',(-0.451557223635254,0.400000013411045,-2.13750149227549));
#832=CARTESIAN_POINT('',(-0.451557223635254,0.,-2.13750149227549));
#833=CARTESIAN_POINT('',(-0.451557223635254,0.400000013411045,-2.13750149227549));
#834=CARTESIAN_POINT('Origin',(1.29922136415425,0.200000006705523,-2.13750149227549));
#835=CARTESIAN_POINT('',(0.448442776364746,0.400000013411045,-2.13750149227549));
#836=CARTESIAN_POINT('',(3.54844277636475,0.,-2.13750149227549));
#837=CARTESIAN_POINT('Origin',(0.448442776364746,0.,-0.287501492275493));
#838=CARTESIAN_POINT('',(0.448442776364746,0.,-0.287501492275493));
#839=CARTESIAN_POINT('',(0.448442776364746,0.,-0.287501492275493));
#840=CARTESIAN_POINT('',(0.448442776364746,0.400000013411045,-0.287501492275493));
#841=CARTESIAN_POINT('',(0.448442776364746,0.,-0.287501492275493));
#842=CARTESIAN_POINT('',(0.448442776364746,0.400000013411045,-0.287501492275493));
#843=CARTESIAN_POINT('Origin',(3.54844277636475,0.,-0.287501492275493));
#844=CARTESIAN_POINT('',(-0.951557223635254,0.,-0.287501492275493));
#845=CARTESIAN_POINT('',(3.54844277636475,0.,-0.287501492275493));
#846=CARTESIAN_POINT('',(-0.951557223635254,0.400000013411045,-0.287501492275493));
#847=CARTESIAN_POINT('',(-0.951557223635254,0.6,-0.287501492275493));
#848=CARTESIAN_POINT('',(0.723442776364746,0.400000013411045,-0.287501492275493));
#849=CARTESIAN_POINT('Origin',(3.54844277636475,0.,-0.287501492275493));
#850=CARTESIAN_POINT('',(3.54844277636475,0.400000013411045,-0.287501492275493));
#851=CARTESIAN_POINT('',(0.723442776364746,0.400000013411045,-0.287501492275493));
#852=CARTESIAN_POINT('',(3.54844277636475,0.,-0.287501492275493));
#853=CARTESIAN_POINT('',(3.54844277636475,0.25,-0.287501492275493));
#854=CARTESIAN_POINT('',(3.54844277636475,0.,-0.287501492275493));
#855=CARTESIAN_POINT('Origin',(1.29844277636475,0.25,0.812498507724507));
#856=CARTESIAN_POINT('',(3.54844277636475,0.25,-0.187501492275493));
#857=CARTESIAN_POINT('',(-0.951557223635254,0.25,-0.187501492275493));
#858=CARTESIAN_POINT('',(1.01094277636475,0.25,-0.187501492275493));
#859=CARTESIAN_POINT('',(-0.951557223635254,0.25,1.81249850772451));
#860=CARTESIAN_POINT('',(-0.951557223635254,0.25,-0.212501492275493));
#861=CARTESIAN_POINT('',(0.723442776364746,0.25,1.81249850772451));
#862=CARTESIAN_POINT('',(-0.951557223635254,0.25,1.81249850772451));
#863=CARTESIAN_POINT('',(0.723442776364746,0.25,1.36249850772451));
#864=CARTESIAN_POINT('',(0.723442776364746,0.25,1.31249850772451));
#865=CARTESIAN_POINT('',(1.87344277636475,0.25,1.36249850772451));
#866=CARTESIAN_POINT('',(1.01094277636475,0.25,1.36249850772451));
#867=CARTESIAN_POINT('',(1.87344277636475,0.25,1.81249850772451));
#868=CARTESIAN_POINT('',(1.87344277636475,0.25,1.08749850772451));
#869=CARTESIAN_POINT('',(3.54844277636475,0.25,1.81249850772451));
#870=CARTESIAN_POINT('',(-0.951557223635254,0.25,1.81249850772451));
#871=CARTESIAN_POINT('',(3.54844277636475,0.25,1.81249850772451));
#872=CARTESIAN_POINT('',(3.26094277636475,0.25,-0.0125014922754935));
#873=CARTESIAN_POINT('Origin',(3.34844277636475,0.25,-0.0125014922754935));
#874=CARTESIAN_POINT('',(-0.814057223635253,0.25,0.812498507724507));
#875=CARTESIAN_POINT('Origin',(-0.00155722363525357,0.25,0.812498507724507));
#876=CARTESIAN_POINT('',(1.78594277636475,0.25,0.812498507724507));
#877=CARTESIAN_POINT('Origin',(2.59844277636475,0.25,0.812498507724507));
#878=CARTESIAN_POINT('',(-0.839057223635254,0.25,-0.0125014922754933));
#879=CARTESIAN_POINT('Origin',(-0.751557223635253,0.25,-0.0125014922754934));
#880=CARTESIAN_POINT('',(-0.839057223635254,0.25,1.63749850772451));
#881=CARTESIAN_POINT('Origin',(-0.751557223635253,0.25,1.63749850772451));
#882=CARTESIAN_POINT('',(3.26094277636475,0.25,1.63749850772451));
#883=CARTESIAN_POINT('Origin',(3.34844277636475,0.25,1.63749850772451));
#884=CARTESIAN_POINT('Origin',(1.87344277636475,0.400000013411045,-0.187501492275493));
#885=CARTESIAN_POINT('',(-0.951557223635254,0.400000013411045,-0.187501492275493));
#886=CARTESIAN_POINT('',(-0.951557223635254,0.400000013411045,-0.237501492275493));
#887=CARTESIAN_POINT('',(3.54844277636475,0.400000013411045,-0.187501492275493));
#888=CARTESIAN_POINT('',(0.723442776364746,0.400000013411045,-0.187501492275493));
#889=CARTESIAN_POINT('',(3.54844277636475,0.400000013411045,-0.187501492275493));
#890=CARTESIAN_POINT('Origin',(-0.951557223635254,0.25,-0.187501492275493));
#891=CARTESIAN_POINT('',(-0.951557223635254,0.725,-0.187501492275493));
#892=CARTESIAN_POINT('',(3.54844277636475,0.725,-0.187501492275493));
#893=CARTESIAN_POINT('Origin',(-0.951557223635254,0.,-0.187501492275493));
#894=CARTESIAN_POINT('',(-0.951557223635254,0.,1.81249850772451));
#895=CARTESIAN_POINT('',(-0.951557223635254,0.,-0.187501492275493));
#896=CARTESIAN_POINT('',(-0.951557223635254,0.,1.81249850772451));
#897=CARTESIAN_POINT('Origin',(-0.751557223635253,0.,-0.0125014922754934));
#898=CARTESIAN_POINT('',(-0.839057223635253,0.625,-0.0125014922754933));
#899=CARTESIAN_POINT('Origin',(-0.751557223635253,0.625,-0.0125014922754934));
#900=CARTESIAN_POINT('',(-0.839057223635253,0.,-0.0125014922754933));
#901=CARTESIAN_POINT('Origin',(-0.751557223635253,0.625,-0.0125014922754934));
#902=CARTESIAN_POINT('Origin',(-0.751557223635253,0.,1.63749850772451));
#903=CARTESIAN_POINT('',(-0.839057223635253,0.625,1.63749850772451));
#904=CARTESIAN_POINT('Origin',(-0.751557223635253,0.625,1.63749850772451));
#905=CARTESIAN_POINT('',(-0.839057223635253,0.,1.63749850772451));
#906=CARTESIAN_POINT('Origin',(-0.751557223635253,0.625,1.63749850772451));
#907=CARTESIAN_POINT('Origin',(3.34844277636475,0.,-0.0125014922754935));
#908=CARTESIAN_POINT('',(3.26094277636475,0.625,-0.0125014922754935));
#909=CARTESIAN_POINT('Origin',(3.34844277636475,0.625,-0.0125014922754935));
#910=CARTESIAN_POINT('',(3.26094277636475,0.,-0.0125014922754935));
#911=CARTESIAN_POINT('Origin',(3.34844277636475,0.625,-0.0125014922754935));
#912=CARTESIAN_POINT('Origin',(3.34844277636475,0.,1.63749850772451));
#913=CARTESIAN_POINT('',(3.26094277636475,0.625,1.63749850772451));
#914=CARTESIAN_POINT('Origin',(3.34844277636475,0.625,1.63749850772451));
#915=CARTESIAN_POINT('',(3.26094277636475,0.,1.63749850772451));
#916=CARTESIAN_POINT('Origin',(3.34844277636475,0.625,1.63749850772451));
#917=CARTESIAN_POINT('Origin',(0.723442776364746,0.25,1.36249850772451));
#918=CARTESIAN_POINT('',(1.87344277636475,0.,1.36249850772451));
#919=CARTESIAN_POINT('',(0.723442776364746,0.,1.36249850772451));
#920=CARTESIAN_POINT('',(1.01094277636475,0.,1.36249850772451));
#921=CARTESIAN_POINT('',(1.87344277636475,0.25,1.36249850772451));
#922=CARTESIAN_POINT('',(0.723442776364746,0.25,1.36249850772451));
#923=CARTESIAN_POINT('Origin',(0.723442776364746,0.25,1.81249850772451));
#924=CARTESIAN_POINT('',(0.723442776364746,0.,1.81249850772451));
#925=CARTESIAN_POINT('',(0.723442776364746,0.,1.31249850772451));
#926=CARTESIAN_POINT('',(0.723442776364746,0.125,1.81249850772451));
#927=CARTESIAN_POINT('Origin',(1.87344277636475,0.25,1.36249850772451));
#928=CARTESIAN_POINT('',(1.87344277636475,0.,1.81249850772451));
#929=CARTESIAN_POINT('',(1.87344277636475,0.,1.08749850772451));
#930=CARTESIAN_POINT('',(1.87344277636475,0.125,1.81249850772451));
#931=CARTESIAN_POINT('Origin',(1.29844277636475,0.,0.812498507724507));
#932=CARTESIAN_POINT('',(-0.951557223635254,0.,1.81249850772451));
#933=CARTESIAN_POINT('',(3.54844277636475,0.,1.81249850772451));
#934=CARTESIAN_POINT('',(3.54844277636475,0.,1.81249850772451));
#935=CARTESIAN_POINT('',(-0.951557223635254,0.,1.81249850772451));
#936=CARTESIAN_POINT('',(1.78594277636475,0.,0.812498507724507));
#937=CARTESIAN_POINT('Origin',(2.59844277636475,0.,0.812498507724507));
#938=CARTESIAN_POINT('',(-0.814057223635254,0.,0.812498507724507));
#939=CARTESIAN_POINT('Origin',(-0.00155722363525357,0.,0.812498507724507));
#940=CARTESIAN_POINT('Origin',(-0.951557223635254,0.,1.81249850772451));
#941=CARTESIAN_POINT('Origin',(3.54844277636475,0.,1.81249850772451));
#942=CARTESIAN_POINT('',(3.54844277636475,0.,1.81249850772451));
#943=CARTESIAN_POINT('Origin',(2.59844277636475,0.,0.812498507724507));
#944=CARTESIAN_POINT('',(1.78594277636475,0.,0.812498507724507));
#945=CARTESIAN_POINT('Origin',(-0.00155722363525357,0.,0.812498507724507));
#946=CARTESIAN_POINT('',(-0.814057223635254,0.,0.812498507724507));
#947=CARTESIAN_POINT('Origin',(-0.951557223635254,0.,1.81249850772451));
#948=UNCERTAINTY_MEASURE_WITH_UNIT(LENGTH_MEASURE(0.001),#952,
'DISTANCE_ACCURACY_VALUE',
'Maximum model space distance between geometric entities at asserted c
onnectivities');
#949=UNCERTAINTY_MEASURE_WITH_UNIT(LENGTH_MEASURE(0.001),#952,
'DISTANCE_ACCURACY_VALUE',
'Maximum model space distance between geometric entities at asserted c
onnectivities');
#950=(
GEOMETRIC_REPRESENTATION_CONTEXT(3)
GLOBAL_UNCERTAINTY_ASSIGNED_CONTEXT((#948))
GLOBAL_UNIT_ASSIGNED_CONTEXT((#952,#954,#955))
REPRESENTATION_CONTEXT('','3D')
);
#951=(
GEOMETRIC_REPRESENTATION_CONTEXT(3)
GLOBAL_UNCERTAINTY_ASSIGNED_CONTEXT((#949))
GLOBAL_UNIT_ASSIGNED_CONTEXT((#952,#954,#955))
REPRESENTATION_CONTEXT('','3D')
);
#952=(
LENGTH_UNIT()
NAMED_UNIT(*)
SI_UNIT(.CENTI.,.METRE.)
);
#953=(
LENGTH_UNIT()
NAMED_UNIT(*)
SI_UNIT($,.METRE.)
);
#954=(
NAMED_UNIT(*)
PLANE_ANGLE_UNIT()
SI_UNIT($,.RADIAN.)
);
#955=(
NAMED_UNIT(*)
SI_UNIT($,.STERADIAN.)
SOLID_ANGLE_UNIT()
);
#956=SHAPE_DEFINITION_REPRESENTATION(#957,#958);
#957=PRODUCT_DEFINITION_SHAPE('',$,#960);
#958=SHAPE_REPRESENTATION('',(#590),#950);
#959=PRODUCT_DEFINITION_CONTEXT('part definition',#964,'design');
#960=PRODUCT_DEFINITION('2026-05-10-02-51-40-389','sensorPart',#961,#959);
#961=PRODUCT_DEFINITION_FORMATION('',$,#966);
#962=PRODUCT_RELATED_PRODUCT_CATEGORY('sensorPart','sensorPart',(#966));
#963=APPLICATION_PROTOCOL_DEFINITION('international standard',
'automotive_design',2009,#964);
#964=APPLICATION_CONTEXT(
'Core Data for Automotive Mechanical Design Process');
#965=PRODUCT_CONTEXT('part definition',#964,'mechanical');
#966=PRODUCT('2026-05-10-02-51-40-389','sensorPart',$,(#965));
#967=PRESENTATION_STYLE_ASSIGNMENT((#968));
#968=SURFACE_STYLE_USAGE(.BOTH.,#969);
#969=SURFACE_SIDE_STYLE('',(#970));
#970=SURFACE_STYLE_FILL_AREA(#971);
#971=FILL_AREA_STYLE('Steel - Satin',(#972));
#972=FILL_AREA_STYLE_COLOUR('Steel - Satin',#973);
#973=COLOUR_RGB('Steel - Satin',0.627450980392157,0.627450980392157,0.627450980392157);
ENDSEC;
END-ISO-10303-21;
